<?xml version="1.0" encoding="UTF-8"?>
<svg id="Layer_1" data-name="Layer 1" xmlns="http://www.w3.org/2000/svg" viewBox="0 0 142.31 164.17">
  <defs>
    <style>
      .cls-1 {
        fill: #626f4e;
        stroke-width: 0px;
      }
    </style>
  </defs>
  <path class="cls-1" d="M138.34,63.14c-2.64-1.52-5.89-2.46-9.75-2.82-3.86-.35-7.69-.35-11.5,0-3.81.36-7.06,1.29-9.75,2.82-2.69,1.52-4.04,3.45-4.04,5.79,0,1.42.3,2.74.91,3.96s1.22,2.13,1.83,2.74.89,1.52.84,2.74-.59,2.69-1.6,4.42l-9.61,15.79c-2.25-7.94-5.94-15.23-11.14-21.83-6.4-8.12-14.32-14.32-23.76-18.58,5.89-2.34,11.42-5.28,16.6-8.83,3.66-2.94,6.52-6.22,8.61-9.82,2.08-3.6,3.35-7.21,3.81-10.81.46-3.6,0-7.13-1.37-10.58-1.37-3.45-3.48-6.52-6.32-9.22-2.84-2.69-6.7-4.85-11.58-6.47-4.87-1.62-10.41-2.44-16.6-2.44H18.44c-5.08,0-9.42.81-13.02,2.44C1.81,4.04,0,6.22,0,8.97c0,1.22.28,2.31.84,3.27.56.97,1.19,1.75,1.9,2.36s1.45,1.22,2.21,1.83c.76.61,1.4,1.45,1.9,2.51.51,1.07.76,2.36.76,3.88v58.79c0,1.22-.18,2.31-.53,3.28-.36.97-.81,1.73-1.37,2.28-.56.56-1.17,1.12-1.83,1.67-.66.56-1.27,1.09-1.83,1.6s-1.04,1.19-1.45,2.06c-.41.86-.61,1.85-.61,2.97,0,2.23,1.34,4.11,4.04,5.64,2.69,1.52,5.94,2.46,9.75,2.82,3.81.36,7.64.36,11.5,0,3.86-.35,7.11-1.29,9.75-2.82,2.64-1.52,3.96-3.4,3.96-5.64,0-1.62-.41-2.99-1.22-4.11s-1.7-1.95-2.67-2.51c-.97-.56-1.83-1.47-2.59-2.74-.76-1.27-1.14-2.77-1.14-4.49V22.83c0-3.66,1.42-6.57,4.26-8.76,2.84-2.18,7.16-3.28,12.95-3.28s10.08,1.07,13.48,3.2c3.4,2.13,5.46,4.82,6.17,8.07s.2,6.83-1.52,10.74c-1.73,3.91-4.57,7.59-8.53,11.04-5.69,4.57-11.93,8.07-18.73,10.51-2.74.91-4.26,2.59-4.57,5.03s.76,4.01,3.2,4.72c.4.1.76.15,1.07.15,16.96,3.65,30.06,19.24,37.42,44.85,3.42,11.91,5.27,16.27,5.27,16.27v16.21c0,1.73-.41,3.2-1.22,4.42s-1.7,2.13-2.67,2.74-1.83,1.47-2.59,2.59c-.76,1.12-1.19,2.44-1.29,3.96,0,2.34,1.34,4.27,4.04,5.79,2.69,1.52,5.96,2.46,9.82,2.82s7.69.36,11.5,0c3.81-.35,7.06-1.29,9.75-2.82,2.69-1.52,4.04-3.45,4.04-5.79-.1-1.52-.53-2.84-1.3-3.96-.76-1.12-1.63-1.98-2.59-2.59-.97-.61-1.85-1.52-2.67-2.74-.81-1.22-1.22-2.74-1.22-4.57v-13.71l27.57-44.93c.91-1.52,1.88-2.84,2.89-3.96s1.88-1.98,2.59-2.59c.71-.61,1.37-1.22,1.98-1.83s1.07-1.34,1.37-2.21c.3-.86.46-1.95.46-3.27,0-2.34-1.32-4.27-3.96-5.79h0Z"/>
</svg>